<svg version="1.1" xmlns="http://www.w3.org/2000/svg" xmlns:xlink="http://www.w3.org/1999/xlink" width="100" height="100">
    <path fill-rule="evenodd" clip-rule="evenodd" fill="#EBBA74" d="M53.354,88.155L45.31,58.91l1.368-0.565l3.386,5.413    l-2.356-11.619l0.65-2.211l4.41,1.846c-1.443-5.619-1.73-5.585-0.859-11.576l1.059-1.145    c2.925,22.542,14.917,36.386,27.935,49.243C72.544,89.399,63.242,89.185,53.354,88.155z" data-part-id="logo__item--logo_0__0"></path>
    <path fill-rule="evenodd" clip-rule="evenodd" fill="#B65F3A" d="M20.214,85.119C20.447,57.984,33.335,31.986,51.367,6.45    l1.669,3.963l-2.895,3.249l0.471,2.274l-1.46,2.886l3.335,0.09c-1.03,2.119-1.57,3.821-0.967,5.007l-5.629,8.705l3.649-3.447    l3.299-3.3l0.979,3.469C40.432,50.018,36.29,68.697,39.273,85.848c0.228,2.819-2.917,4.45-6.206,4.438    c-3.29-0.008-4.847-0.418-7.581-0.774C22.755,89.15,21.107,87.688,20.214,85.119z" data-part-id="logo__item--logo_0__1"></path>
</svg>